<svg xmlns="http://www.w3.org/2000/svg" viewBox="0 0 1280 720" width="1980" height="1114">
	<style>
		tspan { white-space:pre }
	</style>
	<path id="Jonathan " fill="#ffffff" d="M280.23 -0.03Q292.19 -0.03 301.25 7.39Q310.3 14.36 310.3 26.14Q310.3 37.48 305.59 48.83Q293.28 78.92 247.26 162.24Q201.25 245.56 166.47 293.98Q165.02 295.72 153.79 310.99Q142.92 325.82 133.86 337.17Q125.17 348.51 109.59 365.08Q94.37 381.66 80.97 393Q67.93 403.91 51.26 412.19Q34.96 420.05 20.47 420.05Q-2.36 420.05 -2.36 400.85Q-2.36 379.48 18.65 352.43Q40.03 324.95 67.2 306.19Q94.74 287.44 112.49 287.44Q114.66 287.44 114.66 289.62Q114.66 291.8 113.21 293.11Q111.76 294.42 104.16 298.78Q82.78 311.86 49.81 350.69Q17.2 389.51 17.2 403.91Q17.2 405.65 18.65 405.65Q33.87 405.65 84.23 341.09Q132.78 278.71 167.56 227.24Q219.73 151.34 253.78 100.74Q288.2 49.7 291.83 39.67Q295.09 34.43 295.09 32.25Q295.09 29.63 293.28 29.63Q270.09 29.63 237.84 51.88Q205.96 74.13 179.15 103.79Q152.7 133.02 133.86 162.24Q115.02 191.03 115.02 204.56Q115.02 206.3 116.11 206.3Q127.71 206.3 197.27 135.63Q204.15 126.91 205.96 126.91Q207.77 126.91 207.77 128.65Q207.77 129.96 203.06 138.25Q145.82 238.14 113.58 238.14Q101.98 238.14 95.1 226.8Q88.58 215.02 88.58 195.83Q88.58 176.2 105.24 143.05Q122.27 109.9 148.36 78.05Q174.44 46.21 210.31 23.09Q246.54 -0.03 280.23 -0.03ZM240.38 293.98Q251.97 293.98 269 275.66Q286.03 257.34 286.75 250.36Q282.41 246 277.33 234.65Q272.62 222.88 272.26 222.88Q261.03 235.53 252.34 252.1Q238.57 280.02 238.57 290.49Q238.57 293.98 240.38 293.98ZM318.64 187.11Q315.01 187.11 303.42 200.63Q292.19 214.15 292.19 219.39Q292.19 220.7 294.36 224.62Q296.54 228.55 297.62 228.55Q303.78 228.55 311.39 210.66Q319.36 192.78 319.36 190.16Q319.36 187.11 318.64 187.11ZM319.36 243.38Q329.51 243.38 350.88 228.55Q372.62 213.72 388.92 198.88L405.23 183.62Q408.49 186.67 408.49 191.03Q408.49 195.39 405.23 198.88Q345.45 265.63 314.65 265.63Q312.48 265.63 308.13 264.75Q267.19 321.9 237.84 321.9Q218.28 318.41 213.21 305.32Q210.31 298.78 210.31 288.75Q210.31 259.95 237.84 220.26Q265.38 180.13 307.04 161.37Q310.67 161.37 312.48 163.55Q314.29 165.3 315.74 165.73Q317.19 165.73 319.36 163.99Q321.9 161.81 325.88 161.81Q329.87 161.37 334.22 167.04Q340.01 172.71 340.01 181Q340.01 205.43 319.36 243.38ZM417.91 168.79Q420.8 168.79 427.33 172.28Q434.21 175.76 434.21 180.13Q434.21 183.18 432.4 186.23L405.23 231.6Q400.52 238.58 400.52 239.45Q400.52 240.33 400.88 240.33L402.69 239.02Q444.72 203.68 471.89 177.07Q476.96 172.71 480.22 172.71Q483.84 172.71 484.93 173.58L495.08 177.07Q498.7 179.25 498.7 182.74Q498.7 186.23 497.25 188.42Q490.37 197.58 481.31 209.35Q472.61 220.7 468.27 226.8Q463.92 232.47 458.48 239.89Q453.05 247.3 450.51 251.23Q448.34 255.16 445.44 260.39Q442.54 265.19 441.46 268.68Q439.28 278.71 439.28 286.13Q439.28 290.05 443.27 290.05Q447.61 290.05 458.48 283.95Q469.71 277.84 484.93 265.19Q500.51 252.54 525.87 229.42Q551.59 205.86 570.8 189.72Q574.06 192.78 574.06 197.14Q574.06 201.5 570.8 204.99Q559.2 218.51 541.45 239.02Q523.7 259.08 487.1 293.11Q450.87 327.13 436.38 327.13Q408.49 327.13 408.49 291.36Q408.49 277.84 417.18 263.01L432.76 237.27Q434.93 233.35 434.93 232.91Q434.93 232.04 432.76 234.22Q369.72 297.47 352.33 308.37Q349.43 310.56 345.08 310.56Q333.13 310.56 333.13 297.47Q333.13 293.11 334.94 289.62Q361.75 259.95 372.62 241.2Q381.31 230.73 390.73 211.97Q400.52 193.21 407.04 181Q413.92 168.79 417.91 168.79ZM569.71 294.85L572.61 266.93Q572.61 265.63 571.88 265.63Q571.52 265.63 570.07 267.37Q565.36 273.48 558.12 282.64Q550.87 291.36 533.12 306.63Q515.73 321.46 504.86 321.46Q503.05 321.03 500.15 320.15Q497.61 318.84 493.26 312.74Q488.92 306.63 488.92 295.29Q488.92 283.95 503.05 260.83Q517.54 237.27 537.46 215.02Q557.39 192.34 581.66 175.76Q606.3 159.19 624.42 159.19Q631.3 159.62 635.28 170.97Q638.91 166.6 641.81 166.6Q644.7 166.6 648.69 171.84Q650.86 172.28 653.04 174.89Q655.21 177.07 655.21 181.44Q655.21 185.8 650.14 191.03Q642.53 202.37 632.39 216.77Q622.24 231.16 617.89 237.71Q613.55 243.81 608.84 251.67Q600.87 265.19 600.14 273.48Q637.1 252.1 716.44 181.44Q719.7 184.49 719.7 188.85Q719.7 193.21 716.8 196.27Q713.9 199.32 709.56 203.68Q705.57 208.05 693.25 220.7Q680.93 233.35 669.34 245.12Q658.11 256.47 643.26 270.86Q628.76 284.82 617.17 294.85Q589.27 318.84 582.39 318.84Q575.51 318.84 572.61 313.61Q569.71 308.37 569.71 294.85ZM532.75 276.53Q537.1 276.53 559.2 255.16Q581.66 233.78 601.59 212.41L621.88 191.03Q623.33 189.29 623.33 188.85Q623.33 187.98 622.24 187.98Q608.47 187.98 586.37 207.17Q564.27 225.93 547.97 247.3Q532.03 268.24 532.03 275.66Q532.03 276.53 532.75 276.53ZM812.81 111.64L831.29 111.2Q867.16 111.2 883.46 123.42Q891.43 126.47 891.43 131.27Q891.43 134.76 884.18 136.07Q877.3 137.38 835.27 143.05Q793.61 148.28 778.03 149.16Q771.15 149.59 746.15 177.95Q721.51 206.3 699.05 240.33Q676.59 274.35 676.59 287.87Q676.59 290.05 678.4 291.8Q680.21 293.11 682.75 293.11Q685.64 293.11 691.44 290.49Q760.28 241.63 825.13 183.62Q828.39 186.67 828.39 191.03Q828.39 195.39 824.77 199.76Q821.14 203.68 813.9 211.53Q807.01 219.39 787.81 239.89Q768.61 260.39 751.58 276.53Q705.93 321.03 687.82 328Q681.3 330.19 672.24 330.19Q663.54 330.19 655.94 319.28Q648.69 308.37 648.69 289.62Q648.69 270.86 668.62 235.53Q688.9 200.19 723.69 163.11Q726.95 160.06 726.95 157.44Q726.95 154.83 719.34 154.83L696.51 155.7Q648.33 155.7 646.88 142.61Q635.65 140 635.65 134.76Q635.65 133.02 637.1 133.02Q638.55 132.58 639.63 132.58Q640.72 132.14 643.26 131.71Q645.79 131.27 683.11 124.73Q720.79 118.18 768.61 113.82L793.61 73.69Q795.78 68.46 808.83 68.46Q821.87 68.46 821.87 75Q821.87 77.18 818.97 82.85L809.91 98.12Q808.1 105.1 807.74 108.59Q807.74 111.64 812.81 111.64ZM848.32 274.79Q848.32 276.97 849.76 276.97Q851.21 276.97 855.56 274.35Q909.54 239.45 974.4 181.44Q977.66 184.49 977.66 188.85Q977.66 193.21 974.03 197.14Q970.41 201.07 963.53 208.48Q957.01 215.9 938.17 235.09Q919.33 254.28 903.02 269.99Q860.27 311.43 839.98 318.84Q833.46 321.03 825.85 321.03Q813.54 321.03 813.54 297.91Q813.54 290.05 821.51 272.17Q829.48 253.85 829.48 245.56Q829.48 244.69 828.39 244.69Q827.3 244.69 822.95 248.61Q772.6 295.72 761.73 314.05Q759.55 317.97 755.93 317.97Q747.96 317.97 745.79 308.81Q745.79 295.72 776.22 242.51Q807.01 189.29 848.32 130.83Q889.62 71.95 915.7 47.95Q923.31 39.23 951.21 39.23Q955.56 40.54 955.56 43.59Q955.56 46.64 953.02 49.7Q848.68 170.97 820.42 217.64Q818.97 219.39 816.43 224.19Q814.26 228.55 814.26 229.86L814.62 230.29Q816.07 230.29 837.45 211.1Q858.82 191.47 869.33 183.18Q872.59 179.25 883.1 179.25Q892.15 180.56 892.15 186.23Q892.15 187.98 891.43 189.29Q864.62 235.09 859.18 247.74Q848.32 268.24 848.32 274.79ZM971.13 294.85L974.03 266.93Q974.03 265.63 973.31 265.63Q972.95 265.63 971.5 267.37Q966.79 273.48 959.54 282.64Q952.3 291.36 934.54 306.63Q917.15 321.46 906.28 321.46Q904.47 321.03 901.57 320.15Q899.04 318.84 894.69 312.74Q890.34 306.63 890.34 295.29Q890.34 283.95 904.47 260.83Q918.96 237.27 938.89 215.02Q958.82 192.34 983.09 175.76Q1007.73 159.19 1025.84 159.19Q1032.73 159.62 1036.71 170.97Q1040.33 166.6 1043.23 166.6Q1046.13 166.6 1050.12 171.84Q1052.29 172.28 1054.46 174.89Q1056.64 177.07 1056.64 181.44Q1056.64 185.8 1051.56 191.03Q1043.96 202.37 1033.81 216.77Q1023.67 231.16 1019.32 237.71Q1014.97 243.81 1010.26 251.67Q1002.29 265.19 1001.57 273.48Q1038.52 252.1 1117.87 181.44Q1121.13 184.49 1121.13 188.85Q1121.13 193.21 1118.23 196.27Q1115.33 199.32 1110.98 203.68Q1107 208.05 1094.68 220.7Q1082.36 233.35 1070.77 245.12Q1059.54 256.47 1044.68 270.86Q1030.19 284.82 1018.6 294.85Q990.7 318.84 983.82 318.84Q976.93 318.84 974.03 313.61Q971.13 308.37 971.13 294.85ZM934.18 276.53Q938.53 276.53 960.63 255.16Q983.09 233.78 1003.02 212.41L1023.31 191.03Q1024.75 189.29 1024.75 188.85Q1024.75 187.98 1023.67 187.98Q1009.9 187.98 987.8 207.17Q965.7 225.93 949.4 247.3Q933.46 268.24 933.46 275.66Q933.46 276.53 934.18 276.53ZM1127.29 168.79Q1130.18 168.79 1136.7 172.28Q1143.59 175.76 1143.59 180.13Q1143.59 183.18 1141.78 186.23L1114.6 231.6Q1109.89 238.58 1109.89 239.45Q1109.89 240.33 1110.26 240.33L1112.07 239.02Q1154.1 203.68 1181.27 177.07Q1186.34 172.71 1189.6 172.71Q1193.22 172.71 1194.31 173.58L1204.45 177.07Q1208.08 179.25 1208.08 182.74Q1208.08 186.23 1206.63 188.42Q1199.74 197.58 1190.69 209.35Q1181.99 220.7 1177.64 226.8Q1173.3 232.47 1167.86 239.89Q1162.43 247.3 1159.89 251.23Q1157.72 255.16 1154.82 260.39Q1151.92 265.19 1150.83 268.68Q1148.66 278.71 1148.66 286.13Q1148.66 290.05 1152.65 290.05Q1156.99 290.05 1167.86 283.95Q1179.09 277.84 1194.31 265.19Q1209.89 252.54 1235.25 229.42Q1260.97 205.86 1280.17 189.72Q1283.44 192.78 1283.44 197.14Q1283.44 201.5 1280.17 204.99Q1268.58 218.51 1250.83 239.02Q1233.08 259.08 1196.48 293.11Q1160.25 327.13 1145.76 327.13Q1117.87 327.13 1117.87 291.36Q1117.87 277.84 1126.56 263.01L1142.14 237.27Q1144.31 233.35 1144.31 232.91Q1144.31 232.04 1142.14 234.22Q1079.1 297.47 1061.71 308.37Q1058.81 310.56 1054.46 310.56Q1042.51 310.56 1042.51 297.47Q1042.51 293.11 1044.32 289.62Q1071.13 259.95 1082 241.2Q1090.69 230.73 1100.11 211.97Q1109.89 193.21 1116.42 181Q1123.3 168.79 1127.29 168.79Z" />
	<path id="Beuzelin " fill="#ffffff" d="M89.3 376.17Q122.19 346.28 164.24 328.88Q206.29 311.48 233.75 311.48Q261.22 311.48 277.83 319.52Q294.78 327.1 302.24 339.15Q314.79 359.67 314.79 374.84Q314.79 393.13 295.46 417.67Q285.63 430.16 267.66 445.33L263.93 448Q261.55 448.89 261.55 450.68L263.59 452.91Q276.81 460.05 283.59 469.86Q290.71 479.68 290.71 498.86Q290.71 525.18 272.74 549.28Q255.11 572.92 231.04 587.64Q206.96 601.92 185.94 610.4Q164.92 618.87 155.76 618.87Q146.95 618.87 139.83 616.2Q132.71 613.07 128.3 609.06Q119.14 600.58 115.41 591.66Q114.06 589.43 113.04 589.43Q110.67 589.43 104.22 609.06Q97.78 628.69 97.44 628.69L97.44 628.24Q96.43 632.7 94.05 632.7Q88.63 632.7 83.54 619.76Q78.79 606.38 78.79 599.24Q78.79 591.66 85.57 574.26Q92.36 556.41 99.14 543.92L105.92 531.43Q113.72 509.12 170.34 438.19Q226.97 367.25 234.43 367.25Q237.82 367.25 239.85 370.37Q242.23 373.05 243.58 378.85Q243.58 382.42 240.53 384.65L192.72 452.46Q192.04 454.25 192.04 455.14Q192.04 455.59 193.06 455.59Q200.52 455.59 226.97 440.42Q253.42 425.25 278.17 403.39Q303.26 381.53 303.26 367.25Q303.26 351.64 255.79 351.64Q225.61 351.64 196.11 360.56Q166.95 369.04 145.93 381.53Q125.25 393.57 108.63 406.96Q92.02 420.34 83.88 430.16Q75.74 439.97 75.74 442.65Q75.74 445.33 77.44 445.33Q88.29 445.33 113.04 430.16Q138.13 414.54 143.56 409.63Q148.98 404.28 150.34 404.28Q152.03 404.28 153.05 406.51Q140.5 433.73 118.47 452.91Q96.76 471.65 84.56 471.65Q72.35 471.65 64.21 458.71Q56.41 445.33 56.41 435.51Q56.41 405.62 89.3 376.17ZM274.1 481.46Q274.1 477 269.69 474.32Q265.62 471.65 261.22 471.2L256.81 471.2Q235.45 471.2 202.56 483.69Q191.37 487.71 188.65 487.71Q185.94 487.71 183.91 485.03Q182.21 482.35 181.19 480.12Q180.52 477.45 178.82 477.45Q176.79 477.45 174.41 480.57L115.75 583.63L115.75 584.07Q117.45 588.09 122.53 588.09L126.6 588.09Q152.03 588.09 187.3 569.8Q222.56 551.06 248.33 525.63Q274.1 499.75 274.1 481.46ZM387.69 478.34Q378.87 478.34 357.85 502.43Q336.83 526.08 336.83 531.43Q336.83 532.32 337.85 532.32Q345.31 532.32 367.35 510.46Q389.72 488.6 389.72 480.57Q389.72 478.34 387.69 478.34ZM315.47 621.1Q289.36 621.1 289.36 579.17Q289.36 552.84 306.65 523.4Q324.28 493.51 348.02 474.77Q371.75 455.59 390.06 455.59Q398.2 455.59 404.98 464.06Q412.1 472.54 412.1 480.57Q412.1 495.29 396.17 514.03Q380.23 532.32 362.6 543.92Q345.31 555.07 339.54 555.07Q334.12 555.07 331.4 548.38Q330.05 547.04 327.67 547.04Q325.3 547.04 319.88 559.09Q314.45 570.69 314.45 578.27Q314.45 585.41 318.52 587.2Q344.29 587.2 374.47 567.57Q404.64 547.49 457.88 497.52Q461.61 493.95 469.07 486.82Q476.87 479.68 478.22 478.34Q481.27 481.46 481.27 485.92Q481.27 490.39 478.22 493.95Q461.27 516.26 434.14 543.92Q407.36 571.58 372.43 596.57Q337.51 621.1 315.47 621.1ZM495.52 573.37Q546.04 537.68 606.73 478.34Q609.78 481.46 609.78 485.92Q609.78 490.39 606.39 494.4Q603 498.42 596.56 506Q590.46 513.58 572.83 533.21Q555.19 552.84 539.93 568.91Q499.92 611.29 480.94 618.87Q474.83 621.1 467.71 621.1Q456.18 621.1 456.18 597.46Q456.18 592.55 459.24 582.74Q462.63 572.92 462.96 571.58Q463.64 569.8 463.98 568.91Q464.32 568.01 464.66 567.57Q465 566.67 465 565.78Q465 564.89 462.96 564.89Q461.27 564.89 451.78 576.94Q442.28 588.54 435.84 595.67Q429.74 602.81 421.6 609.06Q413.8 615.3 408.71 615.3Q395.15 615.3 395.15 598.8Q395.15 588.98 400.24 574.7Q412.1 541.69 435.84 508.68Q459.57 475.66 469.75 475.22Q473.48 475.22 476.53 478.79Q479.58 482.35 479.58 486.82Q479.58 491.28 472.8 500.2Q466.02 509.12 455.51 523.4Q445.33 537.23 440.93 546.6Q436.86 555.97 436.86 559.09Q436.86 562.21 439.57 562.21Q442.28 562.21 449.4 556.41Q468.73 539.01 493.48 513.58Q518.57 488.15 525.69 476.56Q527.39 468.52 535.87 468.52Q552.14 468.52 552.14 476.11Q552.14 479.23 536.2 499.31Q488.4 559.54 488.4 573.81Q488.4 576.04 489.75 576.04Q491.45 576.04 495.52 573.37ZM643.69 497.08L642.34 497.52Q611.14 505.55 607.75 505.55Q604.7 505.55 601.65 501.54Q592.15 483.69 592.15 477.45Q592.15 470.76 597.58 468.97Q627.08 460.49 646.07 460.49Q665.39 460.49 669.46 466.29Q682.01 482.8 682.01 486.37Q682.01 489.94 678.62 492.62Q652.17 510.91 624.03 535.44Q596.22 559.54 586.05 574.26Q586.05 574.7 587.74 574.7Q589.78 574.7 602.66 569.8Q615.89 564.44 626.74 564.44Q637.59 564.44 641.32 569.35Q658.61 595.67 658.61 605.04Q658.61 608.61 655.9 608.61Q654.2 608.61 649.79 604.6Q645.73 600.58 639.62 600.58Q633.52 600.58 629.45 602.37Q590.12 617.53 566.38 617.53Q562.65 617.53 555.87 608.61Q549.09 599.24 549.09 590.32Q549.09 576.04 564.01 560.87Q578.93 545.26 606.73 525.63Q639.62 502.43 643.69 497.08ZM772.54 478.34Q763.72 478.34 742.7 502.43Q721.68 526.08 721.68 531.43Q721.68 532.32 722.7 532.32Q730.16 532.32 752.2 510.46Q774.57 488.6 774.57 480.57Q774.57 478.34 772.54 478.34ZM700.32 621.1Q674.21 621.1 674.21 579.17Q674.21 552.84 691.5 523.4Q709.13 493.51 732.87 474.77Q756.6 455.59 774.91 455.59Q783.05 455.59 789.83 464.06Q796.95 472.54 796.95 480.57Q796.95 495.29 781.02 514.03Q765.08 532.32 747.45 543.92Q730.16 555.07 724.39 555.07Q718.97 555.07 716.25 548.38Q714.9 547.04 712.52 547.04Q710.15 547.04 704.73 559.09Q699.3 570.69 699.3 578.27Q699.3 585.41 703.37 587.2Q729.14 587.2 759.32 567.57Q789.49 547.49 842.73 497.52Q846.46 493.95 853.92 486.82Q861.72 479.68 863.07 478.34Q866.12 481.46 866.12 485.92Q866.12 490.39 863.07 493.95Q846.12 516.26 818.99 543.92Q792.21 571.58 757.28 596.57Q722.36 621.1 700.32 621.1ZM836.29 583.63Q847.48 583.63 880.37 557.31Q913.59 530.98 940.72 504.66L968.19 478.34Q971.24 481.46 971.24 485.92Q971.24 490.39 967.85 494.4Q964.46 498.42 958.01 506Q951.91 513.58 934.28 533.21Q916.65 552.84 901.39 568.91Q861.38 611.29 842.39 618.87Q836.29 621.1 829.84 621.1Q823.4 621.1 819.67 619.76Q815.94 618.43 811.53 613.96Q802.72 604.15 802.72 570.24Q802.72 560.87 808.82 541.69Q814.92 522.51 828.83 495.29Q843.07 468.08 861.72 440.86Q880.7 413.65 909.53 386.44Q938.69 359.22 971.58 342.27Q976.66 340.04 980.73 340.04Q984.8 340.04 988.19 344.94Q991.58 349.41 992.94 354.31L994.63 358.78Q994.63 369.04 970.56 403.83Q945.81 439.97 913.26 472.99Q881.04 505.55 853.24 528.75Q830.52 548.38 830.52 569.8Q830.52 583.63 836.29 583.63ZM866.8 491.28Q875.28 491.28 918 436.4Q961.07 381.53 961.07 375.28L960.73 374.39L954.96 377.96Q937.33 393.13 907.83 429.71Q878.67 466.29 867.48 486.82Q866.12 489.05 866.12 490.39Q866.12 491.28 866.8 491.28ZM1021.42 392.24Q1024.81 392.24 1025.83 394.02Q1030.58 401.6 1030.58 406.51Q1030.58 410.97 1028.54 414.54Q1026.51 417.67 1023.46 422.13Q1020.74 426.14 1011.93 433.73Q1003.45 440.86 995.31 440.86Q989.21 439.53 989.21 431.05Q989.21 417.67 1001.42 405.17Q1013.62 392.24 1021.42 392.24ZM940.04 568.01Q937.33 574.26 937.33 579.17Q937.33 584.07 941.4 584.07Q943.77 584.07 949.54 581.4Q1012.94 537.68 1073.64 478.34Q1076.69 481.46 1076.69 485.92Q1076.69 490.39 1073.3 494.4Q1069.91 498.42 1063.47 506Q1057.36 513.58 1039.73 533.21Q1022.1 552.84 1006.84 568.91Q966.83 611.29 947.84 618.87Q941.74 621.1 934.62 621.1Q908.51 621.1 908.51 584.52Q908.51 570.24 920.38 543.92Q932.24 517.15 944.79 497.08Q957.34 476.56 961.4 474.32Q967.51 469.42 974.63 469.42Q981.75 469.42 988.19 472.99Q990.23 474.32 990.23 476.56Q990.23 478.79 986.84 483.25Q983.78 487.71 977 497.08Q970.56 506.45 957.34 529.65Q944.45 552.4 940.04 568.01ZM1078.39 465.4Q1081.1 465.4 1087.2 468.97Q1093.64 472.54 1093.64 477Q1093.64 480.12 1091.95 483.25L1066.52 529.65Q1062.11 536.78 1062.11 537.68Q1062.11 538.57 1062.45 538.57L1064.14 537.23Q1103.48 501.09 1128.91 473.88Q1133.65 469.42 1136.71 469.42Q1140.1 469.42 1141.11 470.31L1150.61 473.88Q1154 476.11 1154 479.68Q1154 483.25 1152.64 485.48Q1146.2 494.85 1137.72 506.89Q1129.59 518.49 1125.52 524.74Q1121.45 530.54 1116.36 538.12Q1111.28 545.71 1108.9 549.72Q1106.87 553.74 1104.15 559.09Q1101.44 564 1100.43 567.57Q1098.39 577.83 1098.39 585.41Q1098.39 589.43 1102.12 589.43Q1106.19 589.43 1116.36 583.18Q1126.87 576.94 1141.11 564Q1155.69 551.06 1179.43 527.41Q1203.5 503.32 1221.47 486.82Q1224.53 489.94 1224.53 494.4Q1224.53 498.86 1221.47 502.43Q1210.62 516.26 1194.01 537.23Q1177.4 557.75 1143.15 592.55Q1109.24 627.35 1095.68 627.35Q1069.57 627.35 1069.57 590.77Q1069.57 576.94 1077.71 561.77L1092.29 535.44Q1094.32 531.43 1094.32 530.98Q1094.32 530.09 1092.29 532.32Q1033.29 597.01 1017.01 608.17Q1014.3 610.4 1010.23 610.4Q999.04 610.4 999.04 597.01Q999.04 592.55 1000.74 588.98Q1025.83 558.64 1036 539.46Q1044.14 528.75 1052.95 509.57Q1062.11 490.39 1068.21 477.89Q1074.66 465.4 1078.39 465.4Z" />
</svg>
