<?xml version="1.0" encoding="UTF-8" standalone="no"?>
<!-- Created with Inkscape (http://www.inkscape.org/) -->

<svg
   xmlns:dc="http://purl.org/dc/elements/1.1/"
   xmlns:cc="http://creativecommons.org/ns#"
   xmlns:rdf="http://www.w3.org/1999/02/22-rdf-syntax-ns#"
   xmlns:svg="http://www.w3.org/2000/svg"
   xmlns="http://www.w3.org/2000/svg"
   xmlns:sodipodi="http://sodipodi.sourceforge.net/DTD/sodipodi-0.dtd"
   xmlns:inkscape="http://www.inkscape.org/namespaces/inkscape"
   width="1200"
   height="900"
   viewBox="0 0 317.50001 238.12499"
   version="1.1"
   id="svg8"
   inkscape:version="0.92.3 (2405546, 2018-03-11)"
   sodipodi:docname="drawing.svg">
  <defs
     id="defs2" />
  <sodipodi:namedview
     id="base"
     pagecolor="#000800"
     bordercolor="#666666"
     borderopacity="1.0"
     inkscape:pageopacity="0"
     inkscape:pageshadow="2"
     inkscape:zoom="0.7"
     inkscape:cx="556.06642"
     inkscape:cy="418.81071"
     inkscape:document-units="mm"
     inkscape:current-layer="layer1"
     showgrid="false"
     units="px"
     inkscape:window-width="1440"
     inkscape:window-height="878"
     inkscape:window-x="1912"
     inkscape:window-y="55"
     inkscape:window-maximized="1" />
  <metadata
     id="metadata5">
    <rdf:RDF>
      <cc:Work
         rdf:about="">
        <dc:format>image/svg+xml</dc:format>
        <dc:type
           rdf:resource="http://purl.org/dc/dcmitype/StillImage" />
        <dc:title></dc:title>
      </cc:Work>
    </rdf:RDF>
  </metadata>
  <g
     inkscape:groupmode="layer"
     id="layer2"
     inkscape:label="background" />
  <g
     inkscape:label="Layer 1"
     inkscape:groupmode="layer"
     id="layer1"
     transform="translate(0,-58.87501)">
    <path
       style="fill:#f2f245;fill-opacity:1;stroke:#ffffff;stroke-width:0.80000001;stroke-linejoin:round;stroke-miterlimit:4;stroke-dasharray:none;stroke-dashoffset:0;stroke-opacity:1"
       id="path855"
       sodipodi:type="arc"
       sodipodi:cx="59.909225"
       sodipodi:cy="128.04465"
       sodipodi:rx="14.174108"
       sodipodi:ry="14.741072"
       sodipodi:start="0"
       sodipodi:end="6.2702175"
       d="M 74.083333,128.04465 A 14.174108,14.741072 0 0 1 59.955177,142.78564 14.174108,14.741072 0 0 1 45.735416,128.14023 14.174108,14.741072 0 0 1 59.771372,113.30427 14.174108,14.741072 0 0 1 74.082141,127.85349"
       sodipodi:open="true" />
    <path
       style="fill:#f2373e;fill-opacity:1;stroke:#ffffff;stroke-width:0.80000001;stroke-linejoin:round;stroke-miterlimit:4;stroke-dasharray:none;stroke-dashoffset:0;stroke-opacity:1"
       id="path857"
       sodipodi:type="arc"
       sodipodi:cx="136.26041"
       sodipodi:cy="144.29762"
       sodipodi:rx="16.063988"
       sodipodi:ry="15.875"
       sodipodi:start="0"
       sodipodi:end="6.2702175"
       sodipodi:open="true"
       d="m 152.32439,144.29762 a 16.063988,15.875 0 0 1 -16.0119,15.87492 16.063988,15.875 0 0 1 -16.11573,-15.77199 16.063988,15.875 0 0 1 15.90741,-15.97718 16.063988,15.875 0 0 1 16.21887,15.66839" />
    <path
       style="fill:#f23a11;fill-opacity:1;stroke:#ffffff;stroke-width:0.80000001;stroke-linejoin:round;stroke-miterlimit:4;stroke-dasharray:none;stroke-dashoffset:0;stroke-opacity:1"
       id="path859"
       sodipodi:type="arc"
       sodipodi:cx="205.24106"
       sodipodi:cy="164.89734"
       sodipodi:rx="14.363094"
       sodipodi:ry="15.308036"
       sodipodi:start="0"
       sodipodi:end="6.2702175"
       sodipodi:open="true"
       d="m 219.60415,164.89734 a 14.363094,15.308036 0 0 1 -14.31653,15.30795 14.363094,15.308036 0 0 1 -14.40935,-15.2087 14.363094,15.308036 0 0 1 14.2231,-15.40656 14.363094,15.308036 0 0 1 14.50158,15.1088" />
    <path
       style="fill:#ff8300;fill-opacity:1;stroke:#ffffff;stroke-width:0.80000001;stroke-linejoin:round;stroke-miterlimit:4;stroke-dasharray:none;stroke-dashoffset:0;stroke-opacity:1"
       id="path861"
       sodipodi:type="arc"
       sodipodi:cx="224.70683"
       sodipodi:cy="105.17709"
       sodipodi:rx="15.686011"
       sodipodi:ry="15.686011"
       sodipodi:start="0"
       sodipodi:end="6.2702175"
       sodipodi:open="true"
       d="m 240.39284,105.17709 a 15.686011,15.686011 0 0 1 -15.63515,15.68593 15.686011,15.686011 0 0 1 -15.73654,-15.58422 15.686011,15.686011 0 0 1 15.53313,-15.786976 15.686011,15.686011 0 0 1 15.83725,15.481866" />
    <path
       style="fill:#a30b00;fill-opacity:1;stroke:#ffffff;stroke-width:0.80000001;stroke-linejoin:round;stroke-miterlimit:4;stroke-dasharray:none;stroke-dashoffset:0;stroke-opacity:1"
       id="path863"
       sodipodi:type="arc"
       sodipodi:cx="156.67114"
       sodipodi:cy="99.129471"
       sodipodi:rx="16.441963"
       sodipodi:ry="16.441963"
       sodipodi:start="0"
       sodipodi:end="6.2702175"
       sodipodi:open="true"
       d="M 173.11311,99.129471 A 16.441963,16.441963 0 0 1 156.72445,115.57135 16.441963,16.441963 0 0 1 140.22952,99.236078 16.441963,16.441963 0 0 1 156.51123,82.688285 16.441963,16.441963 0 0 1 173.11172,98.916261" />
    <path
       style="fill:#f208f2;fill-opacity:1;stroke:#ffffff;stroke-width:0.80000001;stroke-linejoin:round;stroke-miterlimit:4;stroke-dasharray:none;stroke-dashoffset:0;stroke-opacity:1"
       id="path865"
       sodipodi:type="arc"
       sodipodi:cx="96.95089"
       sodipodi:cy="94.215782"
       sodipodi:rx="16.063988"
       sodipodi:ry="16.441963"
       sodipodi:start="0"
       sodipodi:end="6.2702175"
       sodipodi:open="true"
       d="M 113.01488,94.215782 A 16.063988,16.441963 0 0 1 97.002968,110.65766 16.063988,16.441963 0 0 1 80.88724,94.32239 16.063988,16.441963 0 0 1 96.794656,77.774597 16.063988,16.441963 0 0 1 113.01353,94.002572" />
    <path
       style="fill:#f20ff2;fill-opacity:1;stroke:#ffffff;stroke-width:0.80000001;stroke-linejoin:round;stroke-miterlimit:4;stroke-dasharray:none;stroke-dashoffset:0;stroke-opacity:1"
       id="path867"
       sodipodi:type="arc"
       sodipodi:cx="116.79464"
       sodipodi:cy="207.23067"
       sodipodi:rx="17.008928"
       sodipodi:ry="17.197916"
       sodipodi:start="0"
       sodipodi:end="6.2702175"
       sodipodi:open="true"
       d="m 133.80357,207.23067 a 17.008928,17.197916 0 0 1 -16.95379,17.19782 17.008928,17.197916 0 0 1 -17.063711,-17.08631 17.008928,17.197916 0 0 1 16.843151,-17.30862 17.008928,17.197916 0 0 1 17.17292,16.97409" />
    <path
       style="fill:#2df2f2;fill-opacity:1;stroke:#ffffff;stroke-width:0.80000001;stroke-linejoin:round;stroke-miterlimit:4;stroke-dasharray:none;stroke-dashoffset:0;stroke-opacity:1"
       id="path869"
       sodipodi:type="arc"
       sodipodi:cx="185.01935"
       sodipodi:cy="214.03424"
       sodipodi:rx="17.575893"
       sodipodi:ry="17.575893"
       sodipodi:start="0"
       sodipodi:end="6.2702175"
       sodipodi:open="true"
       d="m 202.59524,214.03424 a 17.575893,17.575893 0 0 1 -17.51891,17.5758 17.575893,17.575893 0 0 1 -17.63251,-17.46184 17.575893,17.575893 0 0 1 17.40459,-17.68902 17.575893,17.575893 0 0 1 17.74535,17.34715" />
    <path
       style="fill:#7f4cf2;fill-opacity:1;stroke:#ffffff;stroke-width:0.83861744;stroke-linejoin:round;stroke-miterlimit:4;stroke-dasharray:none;stroke-dashoffset:0;stroke-opacity:1"
       id="path871"
       sodipodi:type="arc"
       sodipodi:cx="271.76489"
       sodipodi:cy="180.96132"
       sodipodi:rx="18.501524"
       sodipodi:ry="19.257475"
       sodipodi:start="0"
       sodipodi:end="6.2702175"
       sodipodi:open="true"
       d="m 290.26642,180.96132 a 18.501524,19.257475 0 0 1 -18.44155,19.25737 18.501524,19.257475 0 0 1 -18.56111,-19.13251 18.501524,19.257475 0 0 1 18.32119,-19.38143 18.501524,19.257475 0 0 1 18.67991,19.00685" />
    <path
       style="fill:#555500;fill-opacity:1;stroke:#ffffff;stroke-width:0.80000001;stroke-linejoin:round;stroke-miterlimit:4;stroke-dasharray:none;stroke-dashoffset:0;stroke-opacity:1"
       id="path873"
       sodipodi:type="arc"
       sodipodi:cx="290.09671"
       sodipodi:cy="108.57888"
       sodipodi:rx="14.930058"
       sodipodi:ry="15.308036"
       sodipodi:start="0"
       sodipodi:end="6.2702175"
       sodipodi:open="true"
       d="m 305.02677,108.57888 a 14.930058,15.308036 0 0 1 -14.88166,15.30796 14.930058,15.308036 0 0 1 -14.97814,-15.2087 14.930058,15.308036 0 0 1 14.78453,-15.406572 14.930058,15.308036 0 0 1 15.07401,15.108802" />
    <path
       style="fill:#3800eb;fill-opacity:1;stroke:#ffffff;stroke-width:0.80000001;stroke-linejoin:round;stroke-miterlimit:4;stroke-dasharray:none;stroke-dashoffset:0;stroke-opacity:1"
       id="path875"
       sodipodi:type="arc"
       sodipodi:cx="52.916664"
       sodipodi:cy="199.86012"
       sodipodi:rx="15.875"
       sodipodi:ry="16.252975"
       sodipodi:start="0"
       sodipodi:end="6.2702175"
       sodipodi:open="true"
       d="M 68.791664,199.86012 A 15.875,16.252975 0 0 1 52.96813,216.11301 15.875,16.252975 0 0 1 37.041998,199.9655 a 15.875,16.252975 0 0 1 15.720271,-16.35758 15.875,16.252975 0 0 1 16.02806,16.04144" />
    <path
       style="fill:#f2618e;fill-opacity:1;stroke:#ffffff;stroke-width:0.80000001;stroke-linejoin:round;stroke-miterlimit:4;stroke-dasharray:none;stroke-dashoffset:0;stroke-opacity:1"
       id="path877"
       sodipodi:type="arc"
       sodipodi:cx="115.47173"
       sodipodi:cy="265.06104"
       sodipodi:rx="15.308036"
       sodipodi:ry="16.063988"
       sodipodi:start="0"
       sodipodi:end="6.2702175"
       sodipodi:open="true"
       d="m 130.77977,265.06104 a 15.308036,16.063988 0 0 1 -15.25841,16.0639 15.308036,16.063988 0 0 1 -15.35734,-15.95975 15.308036,16.063988 0 0 1 15.15883,-16.16738 15.308036,16.063988 0 0 1 15.45563,15.85492" />
    <path
       style="fill:#4f4f14;fill-opacity:1;stroke:#ffffff;stroke-width:0.80000001;stroke-linejoin:round;stroke-miterlimit:4;stroke-dasharray:none;stroke-dashoffset:0;stroke-opacity:1"
       id="path879"
       sodipodi:type="arc"
       sodipodi:cx="181.0506"
       sodipodi:cy="271.10864"
       sodipodi:rx="17.386906"
       sodipodi:ry="16.441963"
       sodipodi:start="0"
       sodipodi:end="6.2702175"
       sodipodi:open="true"
       d="m 198.4375,271.10864 a 17.386906,16.441963 0 0 1 -17.33053,16.44188 17.386906,16.441963 0 0 1 -17.44291,-16.33527 17.386906,16.441963 0 0 1 17.21744,-16.54779 17.386906,16.441963 0 0 1 17.55454,16.22797" />
    <path
       style="fill:#f2f238;fill-opacity:1;stroke:#ffffff;stroke-width:0.80000001;stroke-linejoin:round;stroke-miterlimit:4;stroke-dasharray:none;stroke-dashoffset:0;stroke-opacity:1"
       id="path881"
       sodipodi:type="arc"
       sodipodi:cx="248.33035"
       sodipodi:cy="236.14584"
       sodipodi:rx="18.898809"
       sodipodi:ry="19.654762"
       sodipodi:start="0"
       sodipodi:end="6.2702175"
       sodipodi:open="true"
       d="m 267.22916,236.14584 a 18.898809,19.654762 0 0 1 -18.83754,19.65466 18.898809,19.654762 0 0 1 -18.95968,-19.52722 18.898809,19.654762 0 0 1 18.71461,-19.78127 18.898809,19.654762 0 0 1 19.08102,19.39896" />
    <path
       style="fill:#1468ff;fill-opacity:1;stroke:#ffffff;stroke-width:0.80000001;stroke-linejoin:round;stroke-miterlimit:4;stroke-dasharray:none;stroke-dashoffset:0;stroke-opacity:1"
       id="path883"
       sodipodi:type="arc"
       sodipodi:cx="43.845234"
       sodipodi:cy="257.87949"
       sodipodi:rx="15.119047"
       sodipodi:ry="15.308036"
       sodipodi:start="0"
       sodipodi:end="6.2702175"
       sodipodi:open="true"
       d="M 58.964281,257.87949 A 15.119047,15.308036 0 0 1 43.894249,273.18744 15.119047,15.308036 0 0 1 28.726505,257.97874 15.119047,15.308036 0 0 1 43.698191,242.57217 15.119047,15.308036 0 0 1 58.96301,257.68098" />
    <path
       style="fill:#7f7c06;fill-opacity:1;stroke:#ffffff;stroke-width:0.80000001;stroke-linejoin:round;stroke-miterlimit:4;stroke-dasharray:none;stroke-dashoffset:0;stroke-opacity:1"
       id="path885"
       sodipodi:type="arc"
       sodipodi:cx="31.938988"
       sodipodi:cy="159.22768"
       sodipodi:rx="14.930058"
       sodipodi:ry="15.686011"
       sodipodi:start="0"
       sodipodi:end="6.2702175"
       sodipodi:open="true"
       d="M 46.869045,159.22768 A 14.930058,15.686011 0 0 1 31.98739,174.91361 14.930058,15.686011 0 0 1 17.009244,159.32938 14.930058,15.686011 0 0 1 31.793782,143.54241 14.930058,15.686011 0 0 1 46.86779,159.02427" />
    <path
       style="fill:#3d7595;fill-opacity:1;stroke:#ffffff;stroke-width:0.80000001;stroke-linejoin:round;stroke-miterlimit:4;stroke-dasharray:none;stroke-dashoffset:0;stroke-opacity:1"
       id="path887"
       sodipodi:type="arc"
       sodipodi:cx="94.683037"
       sodipodi:cy="166.59822"
       sodipodi:rx="14.552083"
       sodipodi:ry="15.497024"
       sodipodi:start="0"
       sodipodi:end="6.2702175"
       sodipodi:open="true"
       d="M 109.23512,166.59822 A 14.552083,15.497024 0 0 1 94.730214,182.09516 14.552083,15.497024 0 0 1 80.13126,166.6987 14.552083,15.497024 0 0 1 94.541508,151.10193 14.552083,15.497024 0 0 1 109.2339,166.39726" />
    <path
       style="fill:#003d3b;fill-opacity:1;stroke:#ffffff;stroke-width:0.80000001;stroke-linejoin:round;stroke-miterlimit:4;stroke-dasharray:none;stroke-dashoffset:0;stroke-opacity:1"
       id="path889"
       sodipodi:type="arc"
       sodipodi:cx="162.71875"
       sodipodi:cy="181.71727"
       sodipodi:rx="11.90625"
       sodipodi:ry="12.473214"
       sodipodi:start="0"
       sodipodi:end="6.2702175"
       sodipodi:open="true"
       d="m 174.625,181.71727 a 11.90625,12.473214 0 0 1 -11.86765,12.47315 11.90625,12.473214 0 0 1 -11.9446,-12.39228 11.90625,12.473214 0 0 1 11.7902,-12.55349 11.90625,12.473214 0 0 1 12.02105,12.31087" />
    <path
       style="fill:#c17475;fill-opacity:1;stroke:#ffffff;stroke-width:0.80000001;stroke-linejoin:round;stroke-miterlimit:4;stroke-dasharray:none;stroke-dashoffset:0;stroke-opacity:1"
       id="path891"
       sodipodi:type="arc"
       sodipodi:cx="187.28719"
       sodipodi:cy="135.2262"
       sodipodi:rx="8.1264877"
       sodipodi:ry="8.3154764"
       sodipodi:start="0"
       sodipodi:end="6.2702175"
       sodipodi:open="true"
       d="m 195.41367,135.2262 a 8.1264877,8.3154764 0 0 1 -8.10014,8.31543 8.1264877,8.3154764 0 0 1 -8.15266,-8.26152 8.1264877,8.3154764 0 0 1 8.04728,-8.369 8.1264877,8.3154764 0 0 1 8.20484,8.20726" />
    <path
       style="fill:#48f200;fill-opacity:1;stroke:#ffffff;stroke-width:0.80000001;stroke-linejoin:round;stroke-miterlimit:4;stroke-dasharray:none;stroke-dashoffset:0;stroke-opacity:1"
       id="path893"
       sodipodi:type="arc"
       sodipodi:cx="252.2991"
       sodipodi:cy="142.21877"
       sodipodi:rx="11.150297"
       sodipodi:ry="11.150297"
       sodipodi:start="0"
       sodipodi:end="6.2702175"
       sodipodi:open="true"
       d="m 263.4494,142.21877 a 11.150297,11.150297 0 0 1 -11.11415,11.15023 11.150297,11.150297 0 0 1 -11.18621,-11.07794 11.150297,11.150297 0 0 1 11.04162,-11.22206 11.150297,11.150297 0 0 1 11.2578,11.00517" />
    <path
       style="fill:#f27df2;fill-opacity:1;stroke:#000000;stroke-width:0.80000001;stroke-linejoin:round;stroke-miterlimit:4;stroke-dasharray:none;stroke-dashoffset:0;stroke-opacity:1"
       id="path897"
       sodipodi:type="arc"
       sodipodi:cx="267.22916"
       sodipodi:cy="280.74704"
       sodipodi:rx="13.985119"
       sodipodi:ry="13.985119"
       sodipodi:start="0"
       sodipodi:end="6.2702175"
       sodipodi:open="true"
       d="m 281.21428,280.74704 a 13.985119,13.985119 0 0 1 -13.93978,13.98505 13.985119,13.985119 0 0 1 -14.03017,-13.89437 13.985119,13.985119 0 0 1 13.84881,-14.07514 13.985119,13.985119 0 0 1 14.11996,13.80311" />
    <path
       style="fill:#49f24d;fill-opacity:1;stroke:#ffffff;stroke-width:0.80000001;stroke-linejoin:round;stroke-miterlimit:4;stroke-dasharray:none;stroke-dashoffset:0;stroke-opacity:1"
       id="path899"
       sodipodi:type="arc"
       sodipodi:cx="298.79019"
       sodipodi:cy="234.82292"
       sodipodi:rx="11.90625"
       sodipodi:ry="13.040178"
       sodipodi:start="0"
       sodipodi:end="6.2702175"
       sodipodi:open="true"
       d="m 310.69644,234.82292 a 11.90625,13.040178 0 0 1 -11.86765,13.04011 11.90625,13.040178 0 0 1 -11.9446,-12.95556 11.90625,13.040178 0 0 1 11.79021,-13.12411 11.90625,13.040178 0 0 1 12.02104,12.87046" />
    <path
       style="fill:#90f2f2;fill-opacity:1;stroke:#ffffff;stroke-width:0.80000001;stroke-linejoin:round;stroke-miterlimit:4;stroke-dasharray:none;stroke-dashoffset:0;stroke-opacity:1"
       id="path901"
       sodipodi:type="arc"
       sodipodi:cx="38.55357"
       sodipodi:cy="93.648819"
       sodipodi:rx="13.229166"
       sodipodi:ry="13.607142"
       sodipodi:start="0"
       sodipodi:end="6.2702175"
       sodipodi:open="true"
       d="M 51.782736,93.648819 A 13.229166,13.607142 0 0 1 38.596458,107.25589 13.229166,13.607142 0 0 1 25.324682,93.737046 13.229166,13.607142 0 0 1 38.424907,80.04232 13.229166,13.607142 0 0 1 51.781624,93.472369" />
    <path
       style="fill:#0049f2;fill-opacity:1;stroke:#ffffff;stroke-width:0.82886732;stroke-linejoin:round;stroke-miterlimit:4;stroke-dasharray:none;stroke-dashoffset:0;stroke-opacity:1"
       id="path903"
       sodipodi:type="arc"
       sodipodi:cx="134.48701"
       sodipodi:cy="177.55954"
       sodipodi:rx="4.4632087"
       sodipodi:ry="4.9136906"
       sodipodi:start="0"
       sodipodi:end="6.2702175"
       sodipodi:open="true"
       d="m 138.95022,177.55954 a 4.4632087,4.9136906 0 0 1 -4.44874,4.91366 4.4632087,4.9136906 0 0 1 -4.47758,-4.8818 4.4632087,4.9136906 0 0 1 4.41971,-4.94532 4.4632087,4.9136906 0 0 1 4.50624,4.84974" />
    <path
       style="fill:#463bf2;fill-opacity:1;stroke:#ffffff;stroke-width:0.80000001;stroke-linejoin:round;stroke-miterlimit:4;stroke-dasharray:none;stroke-dashoffset:0;stroke-opacity:1"
       id="path905"
       sodipodi:type="arc"
       sodipodi:cx="147.41072"
       sodipodi:cy="238.4137"
       sodipodi:rx="4.5357141"
       sodipodi:ry="4.9136906"
       sodipodi:start="0"
       sodipodi:end="6.2702175"
       sodipodi:open="true"
       d="m 151.94643,238.4137 a 4.5357141,4.9136906 0 0 1 -4.521,4.91366 4.5357141,4.9136906 0 0 1 -4.55033,-4.8818 4.5357141,4.9136906 0 0 1 4.49151,-4.94532 4.5357141,4.9136906 0 0 1 4.57944,4.84974" />
    <path
       style="fill:#f20b0e;fill-opacity:1;stroke:#ffffff;stroke-width:0.80000001;stroke-linejoin:round;stroke-miterlimit:4;stroke-dasharray:none;stroke-dashoffset:0;stroke-opacity:1"
       id="path907"
       sodipodi:type="arc"
       sodipodi:cx="230.94344"
       sodipodi:cy="196.45834"
       sodipodi:rx="4.9136906"
       sodipodi:ry="5.2916665"
       sodipodi:start="0"
       sodipodi:end="6.2702175"
       sodipodi:open="true"
       d="m 235.85713,196.45834 a 4.9136906,5.2916665 0 0 1 -4.89776,5.29164 4.9136906,5.2916665 0 0 1 -4.92952,-5.25733 4.9136906,5.2916665 0 0 1 4.8658,-5.32572 4.9136906,5.2916665 0 0 1 4.96106,5.22279" />
    <path
       style="fill:#4183f2;fill-opacity:1;stroke:#ffffff;stroke-width:0.80000001;stroke-linejoin:round;stroke-miterlimit:4;stroke-dasharray:none;stroke-dashoffset:0;stroke-opacity:1"
       id="path909"
       sodipodi:type="arc"
       sodipodi:cx="222.62798"
       sodipodi:cy="259.95834"
       sodipodi:rx="4.5357141"
       sodipodi:ry="4.9136906"
       sodipodi:start="0"
       sodipodi:end="6.2702175"
       sodipodi:open="true"
       d="m 227.16369,259.95834 a 4.5357141,4.9136906 0 0 1 -4.52101,4.91367 4.5357141,4.9136906 0 0 1 -4.55032,-4.88181 4.5357141,4.9136906 0 0 1 4.4915,-4.94531 4.5357141,4.9136906 0 0 1 4.57945,4.84974" />
    <path
       style="fill:#5e80f2;fill-opacity:1;stroke:#ffffff;stroke-width:0.80000001;stroke-linejoin:round;stroke-miterlimit:4;stroke-dasharray:none;stroke-dashoffset:0;stroke-opacity:1"
       id="path911"
       sodipodi:type="arc"
       sodipodi:cx="69.547623"
       sodipodi:cy="282.25894"
       sodipodi:rx="7.1815472"
       sodipodi:ry="7.9375"
       sodipodi:start="0"
       sodipodi:end="6.2702175"
       sodipodi:open="true"
       d="m 76.72917,282.25894 a 7.1815472,7.9375 0 0 1 -7.158265,7.93746 7.1815472,7.9375 0 0 1 -7.204679,-7.88599 7.1815472,7.9375 0 0 1 7.111551,-7.98859 7.1815472,7.9375 0 0 1 7.250789,7.83419" />
    <path
       style="fill:#00f226;fill-opacity:1;stroke:#ffffff;stroke-width:0.80000001;stroke-linejoin:round;stroke-miterlimit:4;stroke-dasharray:none;stroke-dashoffset:0;stroke-opacity:1"
       id="path913"
       sodipodi:type="arc"
       sodipodi:cx="83.910713"
       sodipodi:cy="239.9256"
       sodipodi:rx="6.4255953"
       sodipodi:ry="7.1815472"
       sodipodi:start="0"
       sodipodi:end="6.2702175"
       sodipodi:open="true"
       d="m 90.336308,239.9256 a 6.4255953,7.1815472 0 0 1 -6.404763,7.18151 6.4255953,7.1815472 0 0 1 -6.446292,-7.13495 6.4255953,7.1815472 0 0 1 6.362967,-7.22777 6.4255953,7.1815472 0 0 1 6.487548,7.08808" />
    <path
       style="fill:#5df2f2;fill-opacity:1;stroke:#ffffff;stroke-width:0.80000001;stroke-linejoin:round;stroke-miterlimit:4;stroke-dasharray:none;stroke-dashoffset:0;stroke-opacity:1"
       id="path915"
       sodipodi:type="arc"
       sodipodi:cx="22.489584"
       sodipodi:cy="229.15327"
       sodipodi:rx="5.4806542"
       sodipodi:ry="6.2366071"
       sodipodi:start="0"
       sodipodi:end="6.2702175"
       sodipodi:open="true"
       d="m 27.970238,229.15327 a 5.4806542,6.2366071 0 0 1 -5.462886,6.23658 5.4806542,6.2366071 0 0 1 -5.498307,-6.19614 5.4806542,6.2366071 0 0 1 5.427236,-6.27675 5.4806542,6.2366071 0 0 1 5.533496,6.15544" />
  </g>
</svg>
